<svg width="148" height="50" viewBox="0 0 148 50" fill="none" xmlns="http://www.w3.org/2000/svg">
<g clip-path="url(#clip0_1222_2035)">
<path fill-rule="evenodd" clip-rule="evenodd" d="M0 48.3266C0 48.0389 0.185052 47.8037 0.411977 47.8037H25.5977C25.8244 47.8037 26.0095 48.0389 26.0095 48.3266C26.0095 48.6142 25.8244 48.8493 25.5977 48.8493H0.411977C0.185052 48.8493 0 48.6139 0 48.3266Z" fill="#FFCC29"/>
<path d="M61.9529 24.1039V35.6142C61.9529 37.7017 62.1968 38.704 63.5781 39.3983H51.8066C53.1882 38.704 53.4322 37.7017 53.4322 35.6142L53.3917 23.0682C53.3773 18.5954 48.7931 21.242 48.7931 24.5965V35.6142C48.7931 37.7017 49.0376 38.704 50.4192 39.3983H38.6488C40.0304 38.704 40.2744 37.7017 40.2744 35.6142L40.233 23.0682C40.2172 18.2701 35.3595 21.6348 35.3595 25.1902V35.6145C35.3595 37.7019 35.6035 38.7042 36.9842 39.3985H25.4102C26.7917 38.7042 27.0358 37.7019 27.0358 35.6145V22.2689C27.0358 20.2031 26.7965 19.2003 25.4536 18.5067H35.1868V21.7339C36.8575 16.5479 46.02 16.8793 48.2868 21.742C51.5486 15.2139 61.9532 17.7748 61.9532 24.1039H61.9529Z" fill="#FEFEFE"/>
<path d="M91.9229 20.1416H89.5215C93.6374 17.4319 97.2669 14.0405 100.247 10.1313V18.5066H106.453C105.699 19.076 104.927 19.6214 104.137 20.1416H100.247V30.3657C100.247 35.1595 100.715 37.6178 106.153 36.1761L106.17 36.2033C104.556 39.0819 99.8734 40.1179 96.3461 38.8629C93.8009 37.957 91.9227 35.3001 91.9227 31.8698V20.1418L91.9229 20.1416Z" fill="#FEFEFE"/>
<path d="M108.699 20.1416H106.298C110.414 17.4319 114.043 14.0405 117.023 10.1313V18.5066H123.238C122.485 19.076 121.713 19.6214 120.923 20.1416H117.023V30.3657C117.023 35.1622 117.492 37.6205 122.938 36.1739L122.951 36.1955C121.341 39.0803 116.653 40.1192 113.122 38.8629C110.577 37.957 108.699 35.3001 108.699 31.8698V20.1418V20.1416Z" fill="#FEFEFE"/>
<path d="M23.5133 36.1112C21.3395 40.5078 13.541 40.5959 12.645 35.8416C11.2996 39.2598 6.3782 40.1376 3.15105 38.7548C-1.35683 36.823 -0.897575 29.971 3.69495 28.8827C6.20914 28.2865 9.59793 28.6614 11.6533 26.7276C11.9313 26.4662 12.1279 26.1465 12.1279 25.6306V23.0325C12.1279 19.6366 9.17289 19.2941 7.99752 20.3359C7.36605 20.895 7.31337 22.0019 7.94282 22.5406C10.1126 24.3989 9.04817 26.7227 6.90972 27.4864C4.17086 28.4644 1.95925 27.1576 1.29693 25.0319C0.774195 23.3553 1.14768 21.0749 3.45002 19.6456C5.69315 18.2525 8.95452 17.938 11.0768 17.938C14.717 17.938 20.4946 19.4964 20.4946 24.0009V33.8982C20.4946 36.9794 22.3552 36.6898 23.5135 36.1114L23.5133 36.1112ZM12.1312 34.6787L12.136 27.8757C11.3158 28.9777 10.165 29.7201 8.88203 30.4591C6.00022 32.1191 7.56888 36.4713 9.87325 36.4713C10.9793 36.4713 12.131 35.5534 12.1315 34.6787H12.1312Z" fill="#FEFEFE"/>
<path d="M135.591 39.3344C119.945 39.3344 120.366 17.9971 135.591 17.9971C150.817 17.9971 151.238 39.3344 135.591 39.3344ZM135.591 19.6874C131.525 19.6966 130.866 37.6825 135.591 37.6825C140.317 37.6825 139.658 19.6966 135.591 19.6874Z" fill="#FEFEFE"/>
<path d="M89.1403 36.1112C86.9665 40.5078 79.1678 40.5959 78.2714 35.8416C76.9262 39.2598 72.0048 40.1376 68.7779 38.7548C64.27 36.823 64.7295 29.971 69.3222 28.8827C71.836 28.2865 75.2248 28.6614 77.2804 26.7276C77.5577 26.4662 77.7545 26.1465 77.7545 25.6306V23.0325C77.7545 19.6366 74.7995 19.2941 73.6241 20.3359C72.9929 20.895 72.94 22.0019 73.569 22.5406C75.7396 24.3989 74.6745 26.7227 72.5363 27.4864C69.7979 28.4644 67.5858 27.1576 66.9235 25.0319C66.4008 23.3553 66.7747 21.0749 69.0768 19.6456C71.32 18.2525 74.5811 17.938 76.7036 17.938C80.3436 17.938 86.1205 19.4964 86.1205 24.0009V33.8982C86.1205 36.9794 87.9816 36.6898 89.1401 36.1114L89.1403 36.1112ZM77.7583 34.6787L77.7628 27.8757C76.9424 28.9777 75.7912 29.7201 74.5089 30.4591C71.627 32.1191 73.1953 36.4713 75.4996 36.4713C76.6057 36.4713 77.7576 35.5534 77.7583 34.6787Z" fill="#FEFEFE"/>
<path fill-rule="evenodd" clip-rule="evenodd" d="M128.357 7.12943H131.938C133.908 7.12943 135.519 8.73708 135.519 10.7026C135.519 12.668 133.908 14.2757 131.938 14.2757H121.195V3.55629C121.195 1.70604 122.623 0.173636 124.434 0H125.118C126.929 0.173187 128.357 1.70604 128.357 3.55629V7.12943Z" fill="#FFCC29"/>
<path d="M33.3896 48.2717C33.3896 48.5161 33.3477 48.7412 33.2633 48.9476C33.1789 49.154 33.0593 49.3326 32.906 49.4833C32.7525 49.6341 32.5681 49.7516 32.352 49.836C32.1356 49.9202 31.8956 49.9629 31.632 49.9629H30.3164V46.5834H31.632C31.8956 46.5834 32.1356 46.6259 32.352 46.711C32.5683 46.7961 32.7527 46.9136 32.906 47.0637C33.0593 47.2137 33.1789 47.3914 33.2633 47.5978C33.3477 47.8043 33.3896 48.0293 33.3896 48.2722V48.2717ZM32.5852 48.2717C32.5852 48.1048 32.5636 47.9539 32.5201 47.8195C32.4767 47.685 32.4148 47.5706 32.3335 47.477C32.252 47.3835 32.1521 47.3114 32.0343 47.2613C31.9164 47.211 31.7824 47.1863 31.632 47.1863H31.1068V49.3598H31.632C31.7824 49.3598 31.9164 49.3342 32.0343 49.2841C32.1521 49.2338 32.252 49.1619 32.3335 49.0685C32.4148 48.9748 32.4769 48.8611 32.5201 48.7268C32.5636 48.5922 32.5852 48.4406 32.5852 48.2722V48.2717ZM37.0721 47.1861V47.9748H38.1368V48.5547H37.0721V49.3596H38.4623V49.9627H36.2817V46.5832H38.4623V47.1863H37.0721V47.1861ZM43.2444 47.2697C43.2212 47.3067 43.1971 47.3346 43.1717 47.3532C43.146 47.3716 43.1129 47.3811 43.0724 47.3811C43.0368 47.3811 42.9988 47.3694 42.9578 47.3471C42.9168 47.3247 42.8702 47.3 42.8182 47.2721C42.7662 47.2443 42.7065 47.2189 42.6399 47.1964C42.5733 47.174 42.4974 47.1632 42.4121 47.1632C42.2649 47.1632 42.1557 47.1939 42.0836 47.2566C42.0116 47.3193 41.9751 47.4042 41.9751 47.5111C41.9751 47.5792 41.9967 47.6356 42.0402 47.6805C42.0836 47.7254 42.1408 47.7641 42.2115 47.7964C42.282 47.829 42.3626 47.8582 42.4533 47.8854C42.544 47.9125 42.6361 47.9426 42.7306 47.9759C42.8252 48.0091 42.9182 48.0484 43.0089 48.0934C43.0996 48.1383 43.1802 48.1956 43.2507 48.2652C43.3214 48.3348 43.3779 48.4191 43.4211 48.5188C43.4645 48.6185 43.4862 48.7392 43.4862 48.88C43.4862 49.0363 43.4591 49.1823 43.4049 49.3185C43.3506 49.4546 43.2723 49.573 43.1692 49.6743C43.0661 49.7756 42.9391 49.8551 42.7878 49.9131C42.6368 49.971 42.4648 50.0004 42.2725 50.0004C42.1672 50.0004 42.0602 49.9897 41.9508 49.9679C41.8416 49.9463 41.7354 49.9153 41.6332 49.8758C41.5307 49.8362 41.4348 49.79 41.345 49.7358C41.255 49.6817 41.1768 49.6213 41.1102 49.5548L41.3427 49.1884C41.3612 49.1621 41.3862 49.1397 41.4164 49.1219C41.4465 49.1042 41.4789 49.0956 41.5147 49.0956C41.5611 49.0956 41.6084 49.1102 41.6557 49.1397C41.7029 49.1691 41.7565 49.2017 41.8162 49.2372C41.8758 49.2726 41.9441 49.3052 42.0215 49.3346C42.0989 49.3641 42.1906 49.3787 42.2959 49.3787C42.4384 49.3787 42.5492 49.347 42.6284 49.2843C42.7075 49.2217 42.7468 49.1226 42.7468 48.9867C42.7468 48.9079 42.7252 48.8436 42.6818 48.7942C42.6383 48.7448 42.5818 48.7037 42.5114 48.6713C42.4409 48.6387 42.3603 48.6102 42.2705 48.5855C42.1807 48.5608 42.0884 48.5329 41.9938 48.5026C41.8993 48.4725 41.8072 48.4352 41.7171 48.3912C41.6273 48.3472 41.5474 48.289 41.4769 48.2173C41.4065 48.1455 41.3491 48.0556 41.3056 47.9482C41.2622 47.8409 41.2405 47.7086 41.2405 47.5509C41.2405 47.424 41.2662 47.3004 41.3173 47.1798C41.3684 47.0592 41.4436 46.9516 41.5429 46.8575C41.6422 46.7631 41.7637 46.6874 41.9078 46.631C42.0519 46.5747 42.2171 46.5468 42.4031 46.5468C42.5069 46.5468 42.6084 46.5544 42.7068 46.5708C42.8052 46.587 42.8981 46.611 42.9866 46.6427C43.0749 46.6744 43.1579 46.7123 43.2347 46.7564C43.3115 46.8004 43.3797 46.8507 43.44 46.9064L43.2446 47.2708L43.2444 47.2697ZM47.1665 49.9627H46.3761V46.5832H47.1665V49.9627ZM51.8765 48.2113H53.0807V49.6379C52.9071 49.7648 52.7228 49.8567 52.5267 49.914C52.3306 49.9712 52.1253 49.9998 51.9114 49.9998C51.6325 49.9998 51.379 49.9557 51.1505 49.8684C50.9218 49.781 50.7259 49.6603 50.5631 49.5065C50.4004 49.3526 50.275 49.1702 50.1865 48.9591C50.0983 48.7481 50.0539 48.519 50.0539 48.2717C50.0539 48.0197 50.0958 47.7876 50.1795 47.5767C50.2633 47.3656 50.3833 47.1838 50.5391 47.0309C50.6948 46.8777 50.8831 46.7586 51.1041 46.6737C51.325 46.5888 51.5715 46.5461 51.8441 46.5461C51.985 46.5461 52.1176 46.5576 52.2417 46.5809C52.3657 46.6041 52.4803 46.6357 52.585 46.676C52.6897 46.7162 52.7849 46.764 52.8716 46.8197C52.9585 46.8754 53.0359 46.9356 53.1041 47.0008L52.8763 47.3465C52.8407 47.4006 52.795 47.4338 52.7383 47.4462C52.6818 47.4586 52.6206 47.4446 52.5555 47.4044C52.4936 47.3674 52.4355 47.3348 52.3803 47.3078C52.3252 47.2809 52.2687 47.2591 52.2113 47.2422C52.1539 47.2252 52.0935 47.2128 52.0298 47.2052C51.9663 47.1975 51.895 47.1937 51.816 47.1937C51.6687 47.1937 51.5361 47.2193 51.4184 47.271C51.3007 47.3227 51.2007 47.3961 51.1179 47.4905C51.035 47.5848 50.9706 47.6978 50.9256 47.8299C50.8806 47.9622 50.8583 48.1098 50.8583 48.2722C50.8583 48.4516 50.883 48.6109 50.9326 48.7499C50.9821 48.889 51.0526 49.0067 51.1433 49.1026C51.234 49.1985 51.3425 49.2711 51.4688 49.3214C51.5951 49.3715 51.7347 49.3971 51.888 49.3971C51.9826 49.3971 52.0686 49.3879 52.1453 49.3692C52.2221 49.3508 52.2964 49.3261 52.3693 49.2951V48.7825H52.0346C51.985 48.7825 51.9463 48.7693 51.9184 48.743C51.8905 48.7167 51.8765 48.6834 51.8765 48.6432V48.2117V48.2113ZM58.9927 46.583V49.9625H58.5836C58.5231 49.9625 58.4729 49.9524 58.4319 49.933C58.3909 49.9137 58.3497 49.8805 58.3094 49.8324L56.7124 47.8168C56.7187 47.8773 56.7232 47.9352 56.7257 47.9916C56.7279 48.048 56.7288 48.1014 56.7288 48.1509V49.9625H56.0361V46.583H56.4499C56.4841 46.583 56.5127 46.5845 56.5361 46.5875C56.5593 46.5906 56.5803 46.596 56.5987 46.6045C56.6174 46.6131 56.6352 46.6254 56.6523 46.6409C56.6694 46.6562 56.6888 46.6773 56.7104 46.7034L58.3214 48.7331C58.3137 48.6682 58.3081 48.6048 58.3052 48.5437C58.302 48.4826 58.3004 48.4253 58.3004 48.3712V46.5827H58.9931L58.9927 46.583ZM64.7232 48.4642C64.6381 48.5354 64.5776 48.6111 64.5418 48.6922C64.5062 48.7735 64.4884 48.86 64.4884 48.9512C64.4884 49.0253 64.5001 49.0927 64.5224 49.1529C64.5449 49.2133 64.5767 49.265 64.6185 49.3084C64.6604 49.3515 64.7108 49.385 64.7689 49.4088C64.827 49.4328 64.8914 49.4452 64.9627 49.4452C65.0665 49.4452 65.1633 49.4312 65.2534 49.4043C65.3432 49.3773 65.427 49.3394 65.5044 49.2897L64.7232 48.464V48.4642ZM67.0409 49.9627H66.3295C66.2937 49.9627 66.2619 49.9605 66.234 49.9566C66.2061 49.9528 66.1807 49.9465 66.1566 49.9373C66.1325 49.9281 66.1093 49.9149 66.0877 49.8978C66.0661 49.8807 66.0427 49.8591 66.0179 49.8329L65.8713 49.6799C65.7241 49.7819 65.5638 49.8609 65.3894 49.9164C65.2151 49.9721 65.0292 50 64.8322 50C64.6973 50 64.5656 49.9768 64.4362 49.9304C64.3067 49.8841 64.1912 49.8176 64.0906 49.7318C63.9898 49.646 63.9085 49.5424 63.8466 49.4202C63.7847 49.298 63.7536 49.1612 63.7536 49.0096C63.7536 48.9074 63.77 48.8108 63.8018 48.7196C63.8335 48.6284 63.8786 48.5433 63.9366 48.4651C63.9947 48.3872 64.0629 48.316 64.1419 48.2517C64.221 48.1875 64.3085 48.1318 64.4047 48.0839C64.3302 47.9709 64.2768 47.8604 64.2442 47.7521C64.2117 47.6439 64.1953 47.5388 64.1953 47.4368C64.1953 47.3161 64.2178 47.2018 64.2619 47.0942C64.3061 46.9868 64.3704 46.8925 64.4549 46.8112C64.5393 46.7301 64.6433 46.6659 64.7664 46.6178C64.8896 46.5699 65.0307 46.5459 65.1903 46.5459C65.3407 46.5459 65.4731 46.5675 65.5879 46.6115C65.7027 46.6555 65.7995 46.7137 65.8786 46.7854C65.9576 46.8572 66.0197 46.9408 66.0645 47.0351C66.1095 47.1295 66.1372 47.2261 66.1483 47.3251L65.6834 47.4179C65.6012 47.4363 65.5409 47.404 65.5019 47.3204C65.4664 47.24 65.4252 47.1789 65.3779 47.1371C65.3306 47.0953 65.2678 47.0747 65.1903 47.0747C65.1361 47.0747 65.0888 47.0848 65.0485 47.1048C65.0082 47.1248 64.9749 47.151 64.9479 47.1836C64.9207 47.2162 64.8997 47.2539 64.8858 47.2973C64.8718 47.3406 64.8648 47.3853 64.8648 47.4318C64.8648 47.472 64.8686 47.51 64.8756 47.5464C64.8826 47.5828 64.8941 47.6198 64.9112 47.6578C64.9283 47.6958 64.9515 47.7351 64.9801 47.7753C65.0089 47.8155 65.0445 47.8595 65.0877 47.9076L65.9247 48.7868C65.9666 48.6956 66.0006 48.5988 66.0269 48.4975C66.0532 48.3962 66.0704 48.2926 66.078 48.1859C66.0827 48.1425 66.0974 48.1086 66.1221 48.0839C66.1469 48.0592 66.1802 48.0469 66.2221 48.0469H66.6777C66.6777 48.271 66.6476 48.4815 66.587 48.6778C66.5265 48.8744 66.4414 49.0536 66.3313 49.216L67.0402 49.9629L67.0409 49.9627ZM72.4414 47.1861V48.0419H73.5992V48.6473H72.4414V49.9625H71.651V46.583H73.8315V47.1861H72.4414ZM78.1255 49.3432C78.2309 49.3432 78.3254 49.3254 78.4085 49.2906C78.4913 49.2558 78.5611 49.2064 78.6185 49.1412C78.6759 49.0763 78.7201 48.9968 78.7502 48.9031C78.7804 48.8097 78.7953 48.7037 78.7953 48.5846V46.5827H79.5809V48.5846C79.5809 48.7917 79.5476 48.982 79.4803 49.1552C79.4128 49.3284 79.316 49.4775 79.1904 49.6028C79.065 49.7282 78.9123 49.8257 78.7325 49.8951C78.5528 49.9647 78.3504 49.9995 78.1257 49.9995C77.8995 49.9995 77.6964 49.9647 77.5166 49.8951C77.3369 49.8254 77.1841 49.7282 77.0587 49.6028C76.933 49.4777 76.8371 49.3284 76.7705 49.1552C76.7039 48.982 76.6705 48.7917 76.6705 48.5846V46.5827H77.4562V48.5821C77.4562 48.7012 77.4718 48.8072 77.5019 48.9007C77.5321 48.9943 77.5755 49.0739 77.6329 49.1397C77.6903 49.2053 77.7608 49.2556 77.8437 49.2904C77.9267 49.3252 78.0204 49.343 78.1257 49.343L78.1255 49.3432ZM83.7237 48.1717C83.8306 48.1717 83.922 48.1578 83.9972 48.1309C84.0724 48.1037 84.1336 48.0666 84.1816 48.0188C84.2298 47.9707 84.2646 47.9143 84.2863 47.8503C84.3079 47.7861 84.3189 47.7173 84.3189 47.643C84.3189 47.4945 84.2709 47.3786 84.1741 47.295C84.0773 47.2115 83.927 47.1697 83.7239 47.1697H83.4078V48.1717H83.7239H83.7237ZM85.3927 49.9625H84.6814C84.5497 49.9625 84.4551 49.9131 84.3977 49.814L83.8351 48.8328C83.8088 48.791 83.7793 48.7603 83.7469 48.7407C83.7142 48.7214 83.6678 48.712 83.6075 48.712H83.4076V49.9622H82.6219V46.5827H83.7239C83.9688 46.5827 84.178 46.6075 84.3509 46.6578C84.5235 46.7079 84.6647 46.7784 84.7739 46.868C84.8831 46.9576 84.9623 47.0637 85.0118 47.1859C85.0614 47.3081 85.0863 47.441 85.0863 47.5848C85.0863 47.6946 85.0717 47.7982 85.0422 47.8957C85.0127 47.9932 84.9695 48.0828 84.9121 48.1657C84.8547 48.2483 84.7842 48.3227 84.6998 48.3876C84.6154 48.4525 84.5177 48.506 84.4076 48.5478C84.4589 48.5741 84.5069 48.6064 84.5517 48.6459C84.5967 48.6855 84.637 48.7326 84.6726 48.7868L85.3932 49.9627L85.3927 49.9625ZM91.0632 46.583V49.9625H90.6541C90.5936 49.9625 90.5434 49.9524 90.5024 49.933C90.4614 49.9137 90.4202 49.8805 90.3799 49.8324L88.7829 47.8168C88.7892 47.8773 88.7937 47.9352 88.7962 47.9916C88.7984 48.048 88.7993 48.1014 88.7993 48.1509V49.9625H88.1066V46.583H88.5204C88.5546 46.583 88.5832 46.5845 88.6066 46.5875C88.6298 46.5906 88.6507 46.596 88.6692 46.6045C88.6879 46.6131 88.7057 46.6254 88.7228 46.6409C88.7399 46.6562 88.7592 46.6773 88.7808 46.7034L90.3918 48.7331C90.3842 48.6682 90.3786 48.6048 90.3756 48.5437C90.3725 48.4826 90.3709 48.4253 90.3709 48.3712V46.5827H91.0636L91.0632 46.583ZM94.9364 49.9625H94.146V46.583H94.9364V49.9625ZM100.453 47.2045H99.5001V49.9625H98.7144V47.2045H97.7613V46.583H100.453V47.2045ZM104.691 49.3432C104.797 49.3432 104.891 49.3254 104.974 49.2906C105.057 49.2558 105.127 49.2064 105.185 49.1412C105.242 49.0763 105.286 48.9968 105.316 48.9031C105.346 48.8097 105.361 48.7037 105.361 48.5846V46.5827H106.147V48.5846C106.147 48.7917 106.114 48.982 106.046 49.1552C105.979 49.3284 105.882 49.4775 105.756 49.6028C105.631 49.7282 105.478 49.8257 105.298 49.8951C105.119 49.9647 104.916 49.9995 104.692 49.9995C104.465 49.9995 104.262 49.9647 104.083 49.8951C103.903 49.8254 103.75 49.7282 103.625 49.6028C103.499 49.4777 103.403 49.3284 103.336 49.1552C103.27 48.982 103.237 48.7917 103.237 48.5846V46.5827H104.022V48.5821C104.022 48.7012 104.038 48.8072 104.068 48.9007C104.098 48.9943 104.142 49.0739 104.199 49.1397C104.256 49.2053 104.327 49.2556 104.41 49.2904C104.493 49.3252 104.586 49.343 104.692 49.343L104.691 49.3432ZM110.29 48.1717C110.397 48.1717 110.488 48.1578 110.563 48.1309C110.638 48.1037 110.7 48.0666 110.748 48.0188C110.796 47.9707 110.831 47.9143 110.852 47.8503C110.874 47.7861 110.885 47.7173 110.885 47.643C110.885 47.4945 110.837 47.3786 110.74 47.295C110.643 47.2115 110.493 47.1697 110.29 47.1697H109.974V48.1717H110.29H110.29ZM111.959 49.9625H111.247C111.116 49.9625 111.021 49.9131 110.964 49.814L110.401 48.8328C110.375 48.791 110.345 48.7603 110.313 48.7407C110.28 48.7214 110.234 48.712 110.173 48.712H109.974V49.9622H109.188V46.5827H110.29C110.535 46.5827 110.744 46.6075 110.917 46.6578C111.09 46.7079 111.231 46.7784 111.34 46.868C111.449 46.9576 111.528 47.0637 111.578 47.1859C111.627 47.3081 111.652 47.441 111.652 47.5848C111.652 47.6946 111.638 47.7982 111.608 47.8957C111.579 47.9932 111.535 48.0828 111.478 48.1657C111.421 48.2483 111.35 48.3227 111.266 48.3876C111.181 48.4525 111.084 48.506 110.974 48.5478C111.025 48.5741 111.073 48.6064 111.118 48.6459C111.163 48.6855 111.203 48.7326 111.239 48.7868L111.959 49.9627L111.959 49.9625ZM115.463 47.1859V47.9745H116.527V48.5545H115.463V49.3593H116.853V49.9625H114.672V46.583H116.853V47.1861H115.463V47.1859Z" fill="#FEFEFE"/>
<path fill-rule="evenodd" clip-rule="evenodd" d="M121.16 48.3266C121.16 48.0389 121.345 47.8037 121.572 47.8037H146.758C146.985 47.8037 147.17 48.0389 147.17 48.3266C147.17 48.6142 146.985 48.8493 146.758 48.8493H121.572C121.345 48.8493 121.16 48.6139 121.16 48.3266Z" fill="#FFCC29"/>
</g>
<defs>
<clipPath id="clip0_1222_2035">
<rect width="147.17" height="50" fill="white"/>
</clipPath>
</defs>
</svg>
