<svg width="179" height="59" viewBox="0 0 179 59" fill="none" xmlns="http://www.w3.org/2000/svg">
<g clip-path="url(#clip0_1222_2246)">
<path fill-rule="evenodd" clip-rule="evenodd" d="M0 56.0588C0 55.725 0.213757 55.4521 0.475801 55.4521H29.5684C29.8304 55.4521 30.0441 55.725 30.0441 56.0588C30.0441 56.3922 29.8303 56.6652 29.5684 56.6652H0.475801C0.213757 56.6652 0 56.3922 0 56.0588Z" fill="#FECC00"/>
<path d="M71.5642 27.9607V41.3127C71.5642 43.7342 71.8457 44.8967 73.4415 45.7022H59.8439C61.4398 44.8967 61.7216 43.7342 61.7216 41.3127L61.6749 26.7591C61.6584 21.5705 56.3629 24.6407 56.3629 28.532V41.3127C56.3629 43.7342 56.6453 44.8967 58.2412 45.7022H44.6448C46.2408 44.8967 46.5226 43.7342 46.5226 41.3127L46.4747 26.7591C46.4566 21.1933 40.8454 25.0963 40.8454 29.2205V41.3126C40.8454 43.734 41.1272 44.8966 42.7221 45.702H29.3525C30.9485 44.8966 31.2303 43.734 31.2303 41.3126V25.8316C31.2303 23.4351 30.9537 22.2719 29.4025 21.4674H40.6457V25.2111C42.5755 19.1955 53.1595 19.5797 55.7778 25.2207C59.5456 17.6481 71.5643 20.6187 71.5643 27.9606L71.5642 27.9607Z" fill="#464545"/>
<path d="M106.182 23.3643H103.408C108.163 20.2209 112.355 16.2869 115.797 11.7524V21.4675H122.966C122.096 22.1279 121.204 22.7608 120.291 23.3641H115.797V35.224C115.797 40.7849 116.338 43.6363 122.62 41.964L122.64 41.9954C120.775 45.3345 115.366 46.5364 111.292 45.0805C108.352 44.0297 106.182 40.9475 106.182 36.9685V23.3641L106.182 23.3643Z" fill="#464545"/>
<path d="M125.562 23.3642H122.788C127.542 20.2209 131.735 16.2869 135.177 11.7524V21.4675H142.357C141.486 22.1279 140.595 22.7608 139.682 23.3641H135.177V35.224C135.177 40.7879 135.719 43.6394 142.009 41.9615L142.025 41.9864C140.165 45.3328 134.75 46.5379 130.671 45.0807C127.731 44.0298 125.562 40.9476 125.562 36.9687V23.3642Z" fill="#464545"/>
<path d="M27.1609 41.8888C24.6501 46.9891 15.6417 47.091 14.6067 41.5761C13.0525 45.5412 7.3677 46.5594 3.63988 44.9555C-1.56723 42.7145 -1.03691 34.7662 4.26815 33.5037C7.1722 32.8122 11.0868 33.2471 13.461 31.0038C13.7821 30.7005 14.009 30.3298 14.009 29.7312V26.7173C14.009 22.7781 10.5956 22.3807 9.23783 23.5891C8.50843 24.2378 8.44755 25.5218 9.17474 26.1465C11.681 28.3022 10.4515 30.9977 7.98144 31.8837C4.81783 33.0181 2.26311 31.5023 1.49801 29.0365C0.894098 27.0916 1.32563 24.4464 3.98507 22.7883C6.57617 21.1722 10.3436 20.8075 12.7951 20.8075C16.9999 20.8075 23.6739 22.6154 23.6739 27.8405V39.3214C23.6739 42.8956 25.8231 42.5598 27.1609 41.8888ZM14.0131 40.2272L14.0185 32.3355C13.0712 33.6137 11.7419 34.475 10.2597 35.3324C6.93077 37.258 8.7428 42.3067 11.4046 42.3067C12.6822 42.3067 14.0126 41.2418 14.0131 40.2272Z" fill="#464545"/>
<path d="M156.626 45.6277C138.552 45.6277 139.038 20.8763 156.626 20.8763C174.213 20.8763 174.7 45.6277 156.626 45.6277ZM156.626 22.837C151.929 22.8478 151.167 43.7114 156.626 43.7114C162.084 43.7114 161.323 22.8478 156.626 22.837Z" fill="#464545"/>
<path d="M102.969 41.8888C100.458 46.9891 91.4489 47.091 90.4135 41.5761C88.8598 45.5412 83.175 46.5594 79.4473 44.9555C74.2402 42.7145 74.7709 34.7662 80.076 33.5037C82.9796 32.8122 86.8941 33.2471 89.2687 31.0038C89.589 30.7005 89.8164 30.3298 89.8164 29.7312V26.7173C89.8164 22.7781 86.4031 22.3807 85.0454 23.5891C84.3163 24.2378 84.2551 25.5218 84.9816 26.1465C87.4889 28.3022 86.2588 30.9977 83.7887 31.8837C80.6255 33.0181 78.0704 31.5023 77.3053 29.0365C76.7014 27.0916 77.1335 24.4464 79.7928 22.7883C82.3839 21.1722 86.1508 20.8075 88.6028 20.8075C92.8075 20.8075 99.4805 22.6154 99.4805 27.8405V39.3214C99.4805 42.8956 101.63 42.5598 102.969 41.8888ZM89.8208 40.2272L89.8261 32.3355C88.8784 33.6137 87.5486 34.475 86.0674 35.3324C82.7385 37.258 84.5501 42.3067 87.2119 42.3067C88.4896 42.3067 89.82 41.2418 89.8208 40.2272Z" fill="#464545"/>
<path fill-rule="evenodd" clip-rule="evenodd" d="M148.269 8.27025H152.406C154.681 8.27025 156.542 10.1352 156.542 12.415C156.542 14.6948 154.681 16.5598 152.406 16.5598H139.996V4.12532C139.996 1.97903 141.646 0.20137 143.737 -6.10352e-05H144.527C146.619 0.200954 148.269 1.97903 148.269 4.12532V8.27011L148.269 8.27025Z" fill="#FECC00"/>
<path d="M38.5696 55.9952C38.5696 56.2787 38.5211 56.5397 38.4237 56.7791C38.3262 57.0187 38.1883 57.2257 38.011 57.4006C37.8338 57.5756 37.6207 57.7118 37.371 57.8096C37.1213 57.9073 36.8437 57.9567 36.5394 57.9567H35.0195V54.0363H36.5394C36.8437 54.0363 37.1211 54.0857 37.371 54.1842C37.6207 54.2829 37.8338 54.4192 38.011 54.5932C38.1881 54.7672 38.3261 54.9735 38.4237 55.2129C38.5213 55.4524 38.5696 55.7133 38.5696 55.995V55.9952ZM37.6405 55.9952C37.6405 55.8015 37.6155 55.6265 37.5653 55.4706C37.5152 55.3146 37.4435 55.1818 37.3496 55.0731C37.2555 54.9647 37.1401 54.8811 37.0041 54.8229C36.8679 54.7645 36.7131 54.7358 36.5394 54.7358H35.9325V57.2571H36.5394C36.7131 57.2571 36.8679 57.2276 37.0041 57.1692C37.1401 57.1109 37.2555 57.0276 37.3496 56.919C37.4435 56.8105 37.5152 56.6786 37.5653 56.5225C37.6153 56.3664 37.6405 56.1906 37.6405 55.995V55.9952ZM42.8235 54.736V55.6508H44.0534V56.3234H42.8235V57.2571H44.4294V57.9567H41.9105V54.0363H44.4294V54.7358H42.8235V54.736ZM49.9534 54.8329C49.9265 54.876 49.8987 54.9083 49.8692 54.9298C49.8398 54.9513 49.8013 54.9621 49.7547 54.9621C49.7136 54.9621 49.6696 54.9486 49.6223 54.9226C49.5748 54.8965 49.521 54.8678 49.4611 54.8355C49.4011 54.8032 49.3322 54.7737 49.2552 54.7476C49.1783 54.7217 49.0904 54.7091 48.9921 54.7091C48.8219 54.7091 48.6957 54.7449 48.6126 54.8175C48.5293 54.8901 48.4872 54.9888 48.4872 55.1126C48.4872 55.1915 48.5123 55.2571 48.5625 55.3091C48.6126 55.3611 48.6788 55.406 48.7602 55.4436C48.8417 55.4813 48.9348 55.5152 49.0395 55.5467C49.1443 55.5782 49.2508 55.6131 49.36 55.6516C49.4691 55.6903 49.5766 55.7359 49.6814 55.7879C49.7861 55.84 49.8791 55.9063 49.9606 55.9871C50.042 56.0678 50.1074 56.1655 50.1576 56.2812C50.2077 56.3969 50.2328 56.5368 50.2328 56.7C50.2328 56.8813 50.2016 57.0507 50.1389 57.2085C50.0762 57.3664 49.9857 57.5036 49.8668 57.6212C49.7478 57.7386 49.601 57.8309 49.4264 57.8983C49.2519 57.9655 49.0531 57.9998 48.8312 57.9998C48.7094 57.9998 48.5859 57.9872 48.4597 57.9621C48.3335 57.937 48.2108 57.9011 48.0928 57.8553C47.9746 57.8096 47.8637 57.7558 47.7598 57.693C47.6558 57.6302 47.5655 57.5602 47.4886 57.4831L47.7571 57.058C47.7786 57.0275 47.8072 57.0015 47.8422 56.981C47.8771 56.9603 47.9146 56.9505 47.9558 56.9505C48.0095 56.9505 48.064 56.9675 48.1186 57.0015C48.1733 57.0356 48.2351 57.0733 48.304 57.1145C48.3729 57.1556 48.4517 57.1934 48.5412 57.2275C48.6307 57.2616 48.7364 57.2785 48.8582 57.2785C49.0229 57.2785 49.1508 57.2417 49.2422 57.1691C49.3335 57.0965 49.3791 56.9817 49.3791 56.8238C49.3791 56.7321 49.3541 56.6578 49.3039 56.6003C49.2538 56.5429 49.1884 56.4953 49.1069 56.4578C49.0254 56.4201 48.9323 56.3869 48.8285 56.3582C48.7248 56.3295 48.6181 56.2972 48.5089 56.2622C48.3998 56.2272 48.2932 56.1841 48.1895 56.133C48.0857 56.0818 47.9934 56.0146 47.9119 55.9311C47.8305 55.8477 47.7643 55.7437 47.7142 55.6189C47.6642 55.4943 47.639 55.341 47.639 55.1578C47.639 55.0107 47.6684 54.8673 47.7277 54.7274C47.7867 54.5875 47.8735 54.4627 47.9882 54.3534C48.1027 54.244 48.2433 54.156 48.4097 54.0907C48.5762 54.0251 48.767 53.9929 48.9817 53.9929C49.1017 53.9929 49.219 54.0018 49.3326 54.0208C49.4462 54.0395 49.5537 54.0674 49.6558 54.1041C49.7579 54.1408 49.8536 54.1849 49.9422 54.2359C50.0307 54.2871 50.1096 54.3453 50.1794 54.4099L49.9538 54.8325L49.9534 54.8329ZM54.4839 57.9568H53.5709V54.0365H54.4839V57.9568ZM59.9247 55.9253H61.3157V57.5801C61.1152 57.7272 60.9023 57.834 60.6758 57.9004C60.4493 57.9666 60.2121 57.9999 59.9651 57.9999C59.6427 57.9999 59.3501 57.9488 59.086 57.8474C58.8219 57.7461 58.5954 57.6062 58.4075 57.4276C58.2196 57.2492 58.0745 57.0375 57.9725 56.7926C57.8704 56.5477 57.8194 56.2823 57.8194 55.9952C57.8194 55.7028 57.8678 55.4337 57.9644 55.1889C58.0611 54.9441 58.1997 54.7332 58.3797 54.5556C58.5597 54.378 58.7771 54.24 59.0323 54.1413C59.2874 54.0427 59.572 53.9933 59.8871 53.9933C60.0499 53.9933 60.2031 54.0068 60.3463 54.0337C60.4896 54.0606 60.622 54.0973 60.7429 54.1439C60.8637 54.1906 60.9738 54.2462 61.074 54.3107C61.1743 54.3753 61.2638 54.4451 61.3426 54.5206L61.0794 54.9215C61.0383 54.9843 60.9855 55.0229 60.92 55.0372C60.8547 55.0515 60.784 55.0354 60.7088 54.9887C60.6372 54.9457 60.57 54.908 60.5065 54.8766C60.4428 54.8452 60.3775 54.8201 60.3113 54.8003C60.2451 54.7806 60.1753 54.7662 60.1018 54.7572C60.0285 54.7483 59.9461 54.7437 59.8548 54.7437C59.6847 54.7437 59.5316 54.7733 59.3955 54.8334C59.2595 54.8935 59.1441 54.9787 59.0482 55.0881C58.9525 55.1975 58.8782 55.3285 58.8262 55.4818C58.7743 55.6353 58.7484 55.8065 58.7484 55.9949C58.7484 56.203 58.7771 56.3878 58.8343 56.5493C58.8916 56.7106 58.9731 56.8471 59.0778 56.9582C59.1826 57.0694 59.3079 57.1537 59.4537 57.2121C59.5996 57.2703 59.7609 57.3 59.938 57.3C60.0471 57.3 60.1465 57.2892 60.2352 57.2675C60.3237 57.246 60.4098 57.2173 60.4939 57.1814V56.5868H60.1072C60.0499 56.5868 60.0051 56.5716 59.973 56.5411C59.9407 56.5106 59.9247 56.4721 59.9247 56.4255V55.9249V55.9253ZM68.1449 54.0365V57.9568H67.6723C67.6024 57.9568 67.5443 57.9452 67.4968 57.9227C67.4494 57.9002 67.4019 57.8617 67.3553 57.806L65.5105 55.4678C65.5178 55.5378 65.5231 55.6051 65.5257 55.6705C65.5283 55.7359 65.5293 55.7979 65.5293 55.8552V57.9567H64.7291V54.0363H65.2069C65.2464 54.0363 65.2794 54.0381 65.3064 54.0416C65.3332 54.0452 65.3573 54.0514 65.3788 54.0613C65.4003 54.0712 65.4208 54.0855 65.4406 54.1035C65.4603 54.1214 65.4827 54.1457 65.5077 54.1761L67.3686 56.5304C67.3597 56.4551 67.3534 56.3815 67.3499 56.3108C67.3463 56.24 67.3445 56.1736 67.3445 56.1108V54.0363H68.1447L68.1449 54.0365ZM74.7643 56.2186C74.6659 56.3011 74.5961 56.389 74.5548 56.4832C74.5137 56.5774 74.4931 56.6778 74.4931 56.7837C74.4931 56.8698 74.5065 56.9478 74.5326 57.0178C74.5586 57.0879 74.5952 57.1479 74.6437 57.1982C74.6919 57.2484 74.7502 57.2869 74.8173 57.3148C74.8844 57.3427 74.9587 57.3569 75.041 57.3569C75.1608 57.3569 75.2728 57.3407 75.3767 57.3094C75.4804 57.2781 75.5771 57.234 75.6667 57.1766L74.7644 56.2188L74.7643 56.2186ZM77.4416 57.9568H76.6199C76.5787 57.9568 76.542 57.9542 76.5098 57.9496C76.4775 57.9451 76.4481 57.9379 76.4203 57.9271C76.3925 57.9163 76.3656 57.9011 76.3406 57.8814C76.3155 57.8617 76.2887 57.8366 76.2599 57.806L76.0907 57.6285C75.9207 57.7469 75.7354 57.8384 75.534 57.903C75.3325 57.9676 75.1178 57.9999 74.8904 57.9999C74.7347 57.9999 74.5825 57.973 74.4329 57.9191C74.2834 57.8653 74.1502 57.7882 74.0338 57.6887C73.9173 57.5891 73.8234 57.469 73.7518 57.3273C73.6803 57.1856 73.6443 57.0267 73.6443 56.8509C73.6443 56.7325 73.6631 56.6204 73.6998 56.5146C73.7365 56.4087 73.7884 56.3101 73.8555 56.2195C73.9226 56.1289 74.0014 56.0465 74.0927 55.972C74.184 55.8976 74.2852 55.833 74.3961 55.7774C74.3101 55.6464 74.2484 55.5181 74.2108 55.3925C74.1733 55.2671 74.1544 55.1451 74.1544 55.0266C74.1544 54.8867 74.1805 54.754 74.2314 54.6292C74.2824 54.5046 74.3567 54.3951 74.4543 54.3008C74.5518 54.2067 74.6719 54.1322 74.8141 54.0767C74.9565 54.0211 75.1193 53.9933 75.3038 53.9933C75.4774 53.9933 75.6304 54.0184 75.7629 54.0696C75.8955 54.1207 76.0073 54.188 76.0986 54.2714C76.1899 54.3549 76.2616 54.4518 76.3135 54.5612C76.3653 54.6705 76.3976 54.7827 76.4102 54.8975L75.8731 55.0052C75.7782 55.0267 75.7083 54.989 75.6636 54.8922C75.6225 54.7991 75.5751 54.7281 75.5204 54.6796C75.4658 54.6312 75.3933 54.6071 75.3038 54.6071C75.2411 54.6071 75.1864 54.6187 75.1399 54.642C75.0933 54.6653 75.0549 54.6958 75.0236 54.7335C74.9922 54.7712 74.9681 54.8151 74.9519 54.8653C74.9359 54.9155 74.9278 54.9676 74.9278 55.0213C74.9278 55.068 74.9323 55.1119 74.9404 55.1541C74.9485 55.1962 74.9619 55.2394 74.9815 55.2833C75.0013 55.3274 75.0281 55.373 75.0612 55.4196C75.0944 55.4663 75.1357 55.5173 75.1856 55.573L76.1524 56.5928C76.2007 56.4869 76.24 56.3747 76.2706 56.2573C76.301 56.1398 76.3207 56.0197 76.3296 55.8959C76.335 55.8457 76.3521 55.8062 76.3807 55.7775C76.4093 55.7488 76.4478 55.7344 76.4961 55.7344H77.0225C77.0225 55.9946 76.9877 56.2385 76.9178 56.4662C76.8479 56.6941 76.7494 56.9021 76.6224 57.0905L77.4413 57.9569L77.4416 57.9568ZM83.6799 54.736V55.7289H85.0172V56.4312H83.6799V57.9568H82.7669V54.0365H85.2857V54.736H83.6799ZM90.2457 57.2383C90.3675 57.2383 90.4767 57.2178 90.5725 57.1773C90.6683 57.1369 90.7488 57.0795 90.8151 57.0041C90.8812 56.9288 90.9324 56.8365 90.9673 56.7278C91.0021 56.6194 91.0191 56.4965 91.0191 56.3584V54.0363H91.9268V56.3584C91.9268 56.5986 91.8881 56.8193 91.8104 57.0202C91.7325 57.2211 91.6206 57.3942 91.4756 57.5395C91.3306 57.6848 91.1543 57.7979 90.9466 57.8786C90.739 57.9594 90.5054 57.9998 90.2457 57.9998C89.9844 57.9998 89.7499 57.9594 89.5422 57.8786C89.3345 57.7979 89.1581 57.6849 89.0133 57.5395C88.8683 57.3942 88.7573 57.2211 88.6803 57.0202C88.6033 56.8192 88.5647 56.5986 88.5647 56.3584V54.0363H89.4723V56.3557C89.4723 56.4938 89.4903 56.6168 89.5252 56.7252C89.5601 56.8337 89.6103 56.9262 89.6764 57.0023C89.7425 57.0786 89.8242 57.1368 89.9199 57.1773C90.0158 57.2176 90.124 57.2383 90.2457 57.2383ZM96.7124 55.8796C96.836 55.8796 96.9415 55.8633 97.0284 55.832C97.1153 55.8005 97.1859 55.7576 97.2415 55.702C97.297 55.6464 97.3374 55.5809 97.3623 55.5065C97.3873 55.4319 97.3999 55.3521 97.3999 55.2661C97.3999 55.0939 97.3444 54.9593 97.2326 54.8626C97.1207 54.7656 96.9469 54.7173 96.7126 54.7173H96.3473V55.8797H96.7126L96.7124 55.8796ZM98.6404 57.9568H97.8187C97.6665 57.9568 97.5574 57.8994 97.4911 57.7846L96.8412 56.6465C96.8108 56.5979 96.7768 56.5622 96.7391 56.5397C96.7015 56.5173 96.6478 56.5064 96.5781 56.5064H96.3472V57.9568H95.4396V54.0365H96.7124C96.9952 54.0365 97.2369 54.0651 97.4366 54.1235C97.6361 54.1817 97.7991 54.2634 97.9252 54.3675C98.0514 54.4715 98.1429 54.5944 98.2 54.7361C98.2573 54.8778 98.2861 55.0321 98.2861 55.1989C98.2861 55.3263 98.2691 55.4465 98.235 55.5595C98.201 55.6724 98.1509 55.7765 98.0848 55.8725C98.0186 55.9684 97.937 56.0545 97.8396 56.1298C97.7421 56.2052 97.6292 56.267 97.502 56.3155C97.5612 56.346 97.6166 56.3836 97.6685 56.4294C97.7203 56.4751 97.767 56.5299 97.8081 56.5927L98.6405 57.9568H98.6404ZM105.19 54.0365V57.9568H104.718C104.648 57.9568 104.59 57.9452 104.542 57.9227C104.495 57.9002 104.447 57.8617 104.401 57.806L102.556 55.4678C102.563 55.5378 102.569 55.6051 102.571 55.6705C102.574 55.7359 102.575 55.7979 102.575 55.8552V57.9567H101.775V54.0363H102.252C102.292 54.0363 102.325 54.0381 102.352 54.0416C102.379 54.0452 102.403 54.0514 102.424 54.0613C102.446 54.0712 102.466 54.0855 102.486 54.1035C102.506 54.1214 102.528 54.1457 102.553 54.1761L104.414 56.5304C104.405 56.4551 104.399 56.3815 104.395 56.3108C104.392 56.24 104.39 56.1736 104.39 56.1108V54.0363H105.19L105.19 54.0365ZM109.665 57.9568H108.752V54.0365H109.665V57.9568ZM116.037 54.7575H114.936V57.9568H114.029V54.7575H112.928V54.0365H116.037V54.7575ZM120.933 57.2383C121.055 57.2383 121.164 57.2178 121.26 57.1773C121.356 57.1369 121.436 57.0795 121.502 57.0041C121.568 56.9288 121.62 56.8365 121.655 56.7278C121.689 56.6194 121.706 56.4965 121.706 56.3584V54.0363H122.614V56.3584C122.614 56.5986 122.575 56.8193 122.498 57.0202C122.42 57.2211 122.308 57.3942 122.163 57.5395C122.018 57.6848 121.842 57.7979 121.634 57.8786C121.426 57.9594 121.193 57.9998 120.933 57.9998C120.672 57.9998 120.437 57.9594 120.229 57.8786C120.022 57.7979 119.845 57.6849 119.701 57.5395C119.556 57.3942 119.445 57.2211 119.368 57.0202C119.291 56.8192 119.252 56.5986 119.252 56.3584V54.0363H120.16V56.3557C120.16 56.4938 120.178 56.6168 120.212 56.7252C120.247 56.8337 120.298 56.9262 120.364 57.0023C120.43 57.0786 120.511 57.1368 120.607 57.1773C120.703 57.2176 120.811 57.2383 120.933 57.2383ZM127.4 55.8796C127.523 55.8796 127.629 55.8633 127.716 55.832C127.803 55.8005 127.873 55.7576 127.929 55.702C127.984 55.6464 128.025 55.5809 128.05 55.5065C128.075 55.4319 128.087 55.3521 128.087 55.2661C128.087 55.0939 128.032 54.9593 127.92 54.8626C127.808 54.7656 127.634 54.7173 127.4 54.7173H127.035V55.8797H127.4L127.4 55.8796ZM129.328 57.9568H128.506C128.354 57.9568 128.245 57.8994 128.178 57.7846L127.528 56.6465C127.498 56.5979 127.464 56.5622 127.426 56.5397C127.389 56.5173 127.335 56.5064 127.265 56.5064H127.034V57.9568H126.127V54.0365H127.4C127.682 54.0365 127.924 54.0651 128.124 54.1235C128.323 54.1817 128.486 54.2634 128.613 54.3675C128.739 54.4715 128.83 54.5944 128.887 54.7361C128.945 54.8778 128.973 55.0321 128.973 55.1989C128.973 55.3263 128.956 55.4465 128.922 55.5595C128.888 55.6724 128.838 55.7765 128.772 55.8725C128.706 55.9684 128.624 56.0545 128.527 56.1298C128.429 56.2052 128.316 56.267 128.189 56.3155C128.249 56.346 128.304 56.3836 128.356 56.4294C128.408 56.4751 128.454 56.5299 128.495 56.5927L129.328 57.9568H129.328ZM133.375 54.736V55.6508H134.605V56.3234H133.375V57.2571H134.981V57.9567H132.462V54.0363H134.981V54.7358H133.375V54.736Z" fill="#464545"/>
<path fill-rule="evenodd" clip-rule="evenodd" d="M139.956 56.0588C139.956 55.725 140.17 55.4521 140.432 55.4521H169.524C169.787 55.4521 170 55.725 170 56.0588C170 56.3922 169.786 56.6652 169.524 56.6652H140.432C140.17 56.6652 139.956 56.3922 139.956 56.0588Z" fill="#FECC00"/>
</g>
<defs>
<clipPath id="clip0_1222_2246">
<rect width="170" height="58" fill="white"/>
</clipPath>
</defs>
</svg>
